{"asset":{"generator":"three-world-builder (doorway variant of Quaternius door.gltf)","version":"2.0"},"scene":0,"scenes":[{"name":"Scene","nodes":[0,1]}],"nodes":[{"mesh":0,"name":"Door_Frame"},{"mesh":1,"name":"Doorway_Void"}],"meshes":[{"name":"Door_Frame","primitives":[{"attributes":{"POSITION":0,"NORMAL":1},"indices":2,"material":0}]},{"name":"Doorway_Void","primitives":[{"attributes":{"POSITION":3,"NORMAL":4},"indices":5,"material":1}]}],"materials":[{"doubleSided":true,"name":"Door_Frame","pbrMetallicRoughness":{"baseColorFactor":[0.11068601161241531,0.09278368949890137,0.09014349430799484,1],"metallicFactor":0,"roughnessFactor":0.5}},{"name":"Void","doubleSided":true,"pbrMetallicRoughness":{"baseColorFactor":[0,0,0,1],"metallicFactor":0,"roughnessFactor":1},"extensions":{"KHR_materials_unlit":{}}}],"extensionsUsed":["KHR_materials_unlit"],"accessors":[{"bufferView":0,"componentType":5126,"count":132,"max":[1.8549386262893677,4.251684188842773,0.7596924304962158],"min":[-1.85547935962677,0.009255528450012207,-0.5378885269165039],"type":"VEC3"},{"bufferView":1,"componentType":5126,"count":132,"type":"VEC3"},{"bufferView":2,"componentType":5123,"count":360,"type":"SCALAR"},{"componentType":5126,"count":12,"type":"VEC3","min":[-1.45,0.01,0.1],"max":[1.45,3.783344,0.1],"bufferView":3},{"componentType":5126,"count":12,"type":"VEC3","bufferView":4},{"componentType":5123,"count":33,"type":"SCALAR","bufferView":5}],"bufferViews":[{"buffer":0,"byteOffset":0,"byteLength":1584},{"buffer":0,"byteOffset":1584,"byteLength":1584},{"buffer":0,"byteOffset":3168,"byteLength":720},{"buffer":0,"byteOffset":3888,"byteLength":144},{"buffer":0,"byteOffset":4032,"byteLength":144},{"buffer":0,"byteOffset":4176,"byteLength":66}],"buffers":[{"byteLength":4242,"uri":"data:application/octet-stream;base64,"}]}