{"asset":{"generator":"scripts/make-round-corners.mjs","version":"2.0"},"scene":0,"scenes":[{"name":"Scene","nodes":[0]}],"nodes":[{"mesh":0,"name":"Cube_Grass_Corner_Round4_Tall"}],"materials":[{"doubleSided":true,"name":"Green_Light","pbrMetallicRoughness":{"baseColorFactor":[0.3128679394721985,0.41093432903289795,0.0227811299264431,1],"metallicFactor":0,"roughnessFactor":0.5}},{"doubleSided":true,"name":"Dirt_1","pbrMetallicRoughness":{"baseColorFactor":[0.48689132928848267,0.2469639927148819,0.1019323468208313,1],"metallicFactor":0,"roughnessFactor":0.5}},{"doubleSided":true,"name":"Dirt_2","pbrMetallicRoughness":{"baseColorFactor":[0.3185347318649292,0.16343075037002563,0.06885882467031479,1],"metallicFactor":0,"roughnessFactor":0.5}},{"doubleSided":true,"name":"Dirt_3","pbrMetallicRoughness":{"baseColorFactor":[0.7873923778533936,0.3653056025505066,0.16989240050315857,1],"metallicFactor":0,"roughnessFactor":0.5}}],"meshes":[{"name":"Cube_Grass_Corner_Round4_Tall","primitives":[{"attributes":{"POSITION":0,"NORMAL":1},"indices":2,"material":0},{"attributes":{"POSITION":3,"NORMAL":4},"indices":5,"material":1},{"attributes":{"POSITION":6,"NORMAL":7},"indices":8,"material":2},{"attributes":{"POSITION":9,"NORMAL":10},"indices":11,"material":3}]}],"accessors":[{"bufferView":0,"componentType":5126,"count":363,"type":"VEC3","min":[-7.116718530654907,0.5271554589271545,-1],"max":[1,0.995956301689148,7.116718530654907]},{"bufferView":1,"componentType":5126,"count":363,"type":"VEC3"},{"bufferView":2,"componentType":5123,"count":1440,"type":"SCALAR"},{"bufferView":3,"componentType":5126,"count":66,"type":"VEC3","min":[-6.999999940395355,-0.3276683986186981,-0.9999999999999996],"max":[1,-0.024297606199979782,6.999999940395355]},{"bufferView":4,"componentType":5126,"count":66,"type":"VEC3"},{"bufferView":5,"componentType":5123,"count":192,"type":"SCALAR"},{"bufferView":6,"componentType":5126,"count":132,"type":"VEC3","min":[-6.999999940395355,-0.623988926410675,-0.9999999999999996],"max":[1,0.623988926410675,6.999999940395355]},{"bufferView":7,"componentType":5126,"count":132,"type":"VEC3"},{"bufferView":8,"componentType":5123,"count":384,"type":"SCALAR"},{"bufferView":9,"componentType":5126,"count":132,"type":"VEC3","min":[-6.999999940395355,-1,-0.9999999999999996],"max":[1,0.2812558114528656,6.999999940395355]},{"bufferView":10,"componentType":5126,"count":132,"type":"VEC3"},{"bufferView":11,"componentType":5123,"count":384,"type":"SCALAR"}],"bufferViews":[{"buffer":0,"byteOffset":0,"byteLength":4356,"target":34962},{"buffer":0,"byteOffset":4356,"byteLength":4356,"target":34962},{"buffer":0,"byteOffset":8712,"byteLength":2880,"target":34963},{"buffer":0,"byteOffset":11592,"byteLength":792,"target":34962},{"buffer":0,"byteOffset":12384,"byteLength":792,"target":34962},{"buffer":0,"byteOffset":13176,"byteLength":384,"target":34963},{"buffer":0,"byteOffset":13560,"byteLength":1584,"target":34962},{"buffer":0,"byteOffset":15144,"byteLength":1584,"target":34962},{"buffer":0,"byteOffset":16728,"byteLength":768,"target":34963},{"buffer":0,"byteOffset":17496,"byteLength":1584,"target":34962},{"buffer":0,"byteOffset":19080,"byteLength":1584,"target":34962},{"buffer":0,"byteOffset":20664,"byteLength":768,"target":34963}],"buffers":[{"byteLength":21432,"uri":"data:application/octet-stream;base64,"}]}