{"asset":{"generator":"scripts/make-round-corners.mjs","version":"2.0"},"scene":0,"scenes":[{"name":"Scene","nodes":[0]}],"nodes":[{"mesh":0,"name":"Cube_Dirt_Corner_Round3_Tall"}],"materials":[{"name":"Dirt_1","pbrMetallicRoughness":{"baseColorFactor":[0.48689132928848267,0.2469639927148819,0.1019323468208313,1],"metallicFactor":0,"roughnessFactor":0.5}},{"name":"Dirt_2","pbrMetallicRoughness":{"baseColorFactor":[0.3185347318649292,0.16343075037002563,0.06885882467031479,1],"metallicFactor":0,"roughnessFactor":0.5}},{"name":"Dirt_3","pbrMetallicRoughness":{"baseColorFactor":[0.7873923778533936,0.3653056025505066,0.16989240050315857,1],"metallicFactor":0,"roughnessFactor":0.5}}],"meshes":[{"name":"Cube_Dirt_Corner_Round3_Tall","primitives":[{"attributes":{"POSITION":0,"NORMAL":1},"indices":2,"material":0},{"attributes":{"POSITION":3,"NORMAL":4},"indices":5,"material":1},{"attributes":{"POSITION":6,"NORMAL":7},"indices":8,"material":2}]}],"accessors":[{"bufferView":0,"componentType":5126,"count":175,"type":"VEC3","min":[-4.999999940395355,-0.3276683986186981,-1.0000001192092896],"max":[1.0000001192092896,0.9999999403953552,4.999999940395355]},{"bufferView":1,"componentType":5126,"count":175,"type":"VEC3"},{"bufferView":2,"componentType":5123,"count":504,"type":"SCALAR"},{"bufferView":3,"componentType":5126,"count":100,"type":"VEC3","min":[-4.999999940395355,-0.623988926410675,-0.9999999999999997],"max":[1,0.623988926410675,4.999999940395355]},{"bufferView":4,"componentType":5126,"count":100,"type":"VEC3"},{"bufferView":5,"componentType":5123,"count":288,"type":"SCALAR"},{"bufferView":6,"componentType":5126,"count":150,"type":"VEC3","min":[-4.999999940395355,-1,-0.9999999999999997],"max":[1,0.873584508895874,4.999999940395355]},{"bufferView":7,"componentType":5126,"count":150,"type":"VEC3"},{"bufferView":8,"componentType":5123,"count":432,"type":"SCALAR"}],"bufferViews":[{"buffer":0,"byteOffset":0,"byteLength":2100,"target":34962},{"buffer":0,"byteOffset":2100,"byteLength":2100,"target":34962},{"buffer":0,"byteOffset":4200,"byteLength":1008,"target":34963},{"buffer":0,"byteOffset":5208,"byteLength":1200,"target":34962},{"buffer":0,"byteOffset":6408,"byteLength":1200,"target":34962},{"buffer":0,"byteOffset":7608,"byteLength":576,"target":34963},{"buffer":0,"byteOffset":8184,"byteLength":1800,"target":34962},{"buffer":0,"byteOffset":9984,"byteLength":1800,"target":34962},{"buffer":0,"byteOffset":11784,"byteLength":864,"target":34963}],"buffers":[{"byteLength":12648,"uri":"data:application/octet-stream;base64,"}]}