{"asset":{"generator":"scripts/make-round-corners.mjs","version":"2.0"},"scene":0,"scenes":[{"name":"Scene","nodes":[0]}],"nodes":[{"mesh":0,"name":"Cube_Dirt_Corner_Round7"}],"materials":[{"name":"Dirt_1","pbrMetallicRoughness":{"baseColorFactor":[0.48689132928848267,0.2469639927148819,0.1019323468208313,1],"metallicFactor":0,"roughnessFactor":0.5}},{"name":"Dirt_2","pbrMetallicRoughness":{"baseColorFactor":[0.3185347318649292,0.16343075037002563,0.06885882467031479,1],"metallicFactor":0,"roughnessFactor":0.5}},{"name":"Dirt_3","pbrMetallicRoughness":{"baseColorFactor":[0.7873923778533936,0.3653056025505066,0.16989240050315857,1],"metallicFactor":0,"roughnessFactor":0.5}}],"meshes":[{"name":"Cube_Dirt_Corner_Round7","primitives":[{"attributes":{"POSITION":0,"NORMAL":1},"indices":2,"material":0},{"attributes":{"POSITION":3,"NORMAL":4},"indices":5,"material":1},{"attributes":{"POSITION":6,"NORMAL":7},"indices":8,"material":2}]}],"accessors":[{"bufferView":0,"componentType":5126,"count":741,"type":"VEC3","min":[-12.999999940395355,-0.9999999403953552,-1.0000001192092896],"max":[1.0000001192092896,0.9999999403953552,12.999999940395355]},{"bufferView":1,"componentType":5126,"count":741,"type":"VEC3"},{"bufferView":2,"componentType":5123,"count":2352,"type":"SCALAR"},{"bufferView":3,"componentType":5126,"count":228,"type":"VEC3","min":[-12.999999940395355,-0.623988926410675,-0.9999999999999991],"max":[1,0.623988926410675,12.999999940395355]},{"bufferView":4,"componentType":5126,"count":228,"type":"VEC3"},{"bufferView":5,"componentType":5123,"count":672,"type":"SCALAR"},{"bufferView":6,"componentType":5126,"count":228,"type":"VEC3","min":[-12.999999940395355,-0.873584508895874,-0.9999999999999991],"max":[1,0.873584508895874,12.999999940395355]},{"bufferView":7,"componentType":5126,"count":228,"type":"VEC3"},{"bufferView":8,"componentType":5123,"count":672,"type":"SCALAR"}],"bufferViews":[{"buffer":0,"byteOffset":0,"byteLength":8892,"target":34962},{"buffer":0,"byteOffset":8892,"byteLength":8892,"target":34962},{"buffer":0,"byteOffset":17784,"byteLength":4704,"target":34963},{"buffer":0,"byteOffset":22488,"byteLength":2736,"target":34962},{"buffer":0,"byteOffset":25224,"byteLength":2736,"target":34962},{"buffer":0,"byteOffset":27960,"byteLength":1344,"target":34963},{"buffer":0,"byteOffset":29304,"byteLength":2736,"target":34962},{"buffer":0,"byteOffset":32040,"byteLength":2736,"target":34962},{"buffer":0,"byteOffset":34776,"byteLength":1344,"target":34963}],"buffers":[{"byteLength":36120,"uri":"data:application/octet-stream;base64,"}]}